<svg xmlns="http://www.w3.org/2000/svg" width="104" height="104" viewBox="0 0 104 104" role="img" aria-label="fraudurl"><title>fraudurl</title><defs><linearGradient id="brand" x1="0" y1="0" x2="1" y2="1"><stop offset="0" stop-color="#3987e5"/><stop offset="1" stop-color="#9d7ce8"/></linearGradient><linearGradient id="bg" x1="0" y1="0" x2="1" y2="1"><stop offset="0" stop-color="#0d1117"/><stop offset="1" stop-color="#121a2a"/></linearGradient><pattern id="dots" width="22" height="22" patternUnits="userSpaceOnUse"><circle cx="2" cy="2" r="1.2" fill="#232b36"/></pattern></defs><g transform="translate(0,0) scale(1.0)"><rect width="104" height="104" rx="26" fill="url(#brand)"/><g fill="none" stroke="#ffffff" stroke-width="7" stroke-linecap="round"><path d="M44 58 L58 44"/><path d="M40 50 L31 59 a10.5 10.5 0 0 0 14.8 14.8 L54.8 64.8"/><path d="M62 54 L71 45 a10.5 10.5 0 0 0 -14.8 -14.8 L47.2 39.2"/></g><circle cx="74" cy="74" r="15" fill="#ffffff"/><circle cx="74" cy="74" r="8.5" fill="none" stroke="url(#brand)" stroke-width="4"/><path d="M80.5 80.5 L86 86" stroke="url(#brand)" stroke-width="4" stroke-linecap="round"/></g></svg>
